REM DIRINDEX 1\2,1\3,1\4,1\5,1\6
REM DIRNAME cjc030,folder01,folder02,folder03,folder04,folder05
TITLE ""
FILE "Disc2Track24.mp3" MP3
  TRACK 01 AUDIO
    TITLE "3:cjc030_02691"
    INDEX 01 00:00:00
  TRACK 02 AUDIO
    TITLE "0:"
    INDEX 01 00:01:01
  TRACK 03 AUDIO
    TITLE "4:cjc030_02692"
    INDEX 01 00:01:15
  TRACK 04 AUDIO
    TITLE "0:"
    INDEX 01 00:05:42
  TRACK 05 AUDIO
    TITLE "5:cjc030_02693"
    INDEX 01 00:05:52
  TRACK 06 AUDIO
    TITLE "0:"
    INDEX 01 00:06:61
  TRACK 07 AUDIO
    TITLE "6:cjc030_02694"
    INDEX 01 00:06:69
  TRACK 08 AUDIO
    TITLE "0:"
    INDEX 01 00:10:00
  TRACK 09 AUDIO
    TITLE "6:cjc030_02695"
    INDEX 01 00:10:35
  TRACK 10 AUDIO
    TITLE "0:"
    INDEX 01 00:16:63
  TRACK 11 AUDIO
    TITLE "3:cjc030_02696"
    INDEX 01 00:17:37
  TRACK 12 AUDIO
    TITLE "0:"
    INDEX 01 00:18:44
  TRACK 13 AUDIO
    TITLE "4:cjc030_02697"
    INDEX 01 00:18:54
  TRACK 14 AUDIO
    TITLE "0:"
    INDEX 01 00:19:40
  TRACK 15 AUDIO
    TITLE "5:cjc030_02698"
    INDEX 01 00:19:48
  TRACK 16 AUDIO
    TITLE "0:"
    INDEX 01 00:20:57
  TRACK 17 AUDIO
    TITLE "3:cjc030_02699"
    INDEX 01 00:21:35
  TRACK 18 AUDIO
    TITLE "0:"
    INDEX 01 00:22:48
  TRACK 19 AUDIO
    TITLE "4:cjc030_02700"
    INDEX 01 00:22:58
  TRACK 20 AUDIO
    TITLE "0:"
    INDEX 01 00:24:02
  TRACK 21 AUDIO
    TITLE "5:cjc030_02701"
    INDEX 01 00:24:10
  TRACK 22 AUDIO
    TITLE "0:"
    INDEX 01 00:25:25
  TRACK 23 AUDIO
    TITLE "3:cjc030_02702"
    INDEX 01 00:26:05
  TRACK 24 AUDIO
    TITLE "0:"
    INDEX 01 00:27:26
  TRACK 25 AUDIO
    TITLE "4:cjc030_02703"
    INDEX 01 00:27:36
  TRACK 26 AUDIO
    TITLE "0:"
    INDEX 01 00:30:03
  TRACK 27 AUDIO
    TITLE "5:cjc030_02704"
    INDEX 01 00:30:12
  TRACK 28 AUDIO
    TITLE "0:"
    INDEX 01 00:31:31
  TRACK 29 AUDIO
    TITLE "3:cjc030_02705"
    INDEX 01 00:32:09
  TRACK 30 AUDIO
    TITLE "0:"
    INDEX 01 00:33:19
  TRACK 31 AUDIO
    TITLE "4:cjc030_02706"
    INDEX 01 00:33:30
  TRACK 32 AUDIO
    TITLE "0:"
    INDEX 01 00:35:39
  TRACK 33 AUDIO
    TITLE "5:cjc030_02707"
    INDEX 01 00:35:49
  TRACK 34 AUDIO
    TITLE "0:"
    INDEX 01 00:36:60
  TRACK 35 AUDIO
    TITLE "6:cjc030_02708"
    INDEX 01 00:36:70
  TRACK 36 AUDIO
    TITLE "0:"
    INDEX 01 00:38:51
  TRACK 37 AUDIO
    TITLE "3:cjc030_02709"
    INDEX 01 00:39:25
  TRACK 38 AUDIO
    TITLE "0:"
    INDEX 01 00:40:30
  TRACK 39 AUDIO
    TITLE "4:cjc030_02710"
    INDEX 01 00:40:40
  TRACK 40 AUDIO
    TITLE "0:"
    INDEX 01 00:44:65
  TRACK 41 AUDIO
    TITLE "5:cjc030_02711"
    INDEX 01 00:44:73
  TRACK 42 AUDIO
    TITLE "0:"
    INDEX 01 00:46:04
  TRACK 43 AUDIO
    TITLE "6:cjc030_02712"
    INDEX 01 00:46:17
  TRACK 44 AUDIO
    TITLE "0:"
    INDEX 01 00:49:51
  TRACK 45 AUDIO
    TITLE "6:cjc030_02713"
    INDEX 01 00:50:09
  TRACK 46 AUDIO
    TITLE "0:"
    INDEX 01 00:52:39
  TRACK 47 AUDIO
    TITLE "3:cjc030_02714"
    INDEX 01 00:53:15
  TRACK 48 AUDIO
    TITLE "0:"
    INDEX 01 00:54:36
  TRACK 49 AUDIO
    TITLE "4:cjc030_02715"
    INDEX 01 00:54:46
  TRACK 50 AUDIO
    TITLE "0:"
    INDEX 01 00:57:72
  TRACK 51 AUDIO
    TITLE "5:cjc030_02716"
    INDEX 01 00:58:07
  TRACK 52 AUDIO
    TITLE "0:"
    INDEX 01 00:59:28
  TRACK 53 AUDIO
    TITLE "6:cjc030_02717"
    INDEX 01 00:59:39
  TRACK 54 AUDIO
    TITLE "0:"
    INDEX 01 01:02:24
  TRACK 55 AUDIO
    TITLE "3:cjc030_02718"
    INDEX 01 01:03:00
  TRACK 56 AUDIO
    TITLE "0:"
    INDEX 01 01:04:09
  TRACK 57 AUDIO
    TITLE "4:cjc030_02719"
    INDEX 01 01:04:15
  TRACK 58 AUDIO
    TITLE "0:"
    INDEX 01 01:06:02
  TRACK 59 AUDIO
    TITLE "5:cjc030_02720"
    INDEX 01 01:06:10
  TRACK 60 AUDIO
    TITLE "0:"
    INDEX 01 01:07:19
  TRACK 61 AUDIO
    TITLE "3:cjc030_02721"
    INDEX 01 01:07:72
  TRACK 62 AUDIO
    TITLE "0:"
    INDEX 01 01:09:07
  TRACK 63 AUDIO
    TITLE "4:cjc030_02722"
    INDEX 01 01:09:16
  TRACK 64 AUDIO
    TITLE "0:"
    INDEX 01 01:12:48
  TRACK 65 AUDIO
    TITLE "5:cjc030_02723"
    INDEX 01 01:12:54
  TRACK 66 AUDIO
    TITLE "0:"
    INDEX 01 01:13:67
  TRACK 67 AUDIO
    TITLE "6:cjc030_02724"
    INDEX 01 01:14:04
  TRACK 68 AUDIO
    TITLE "0:"
    INDEX 01 01:19:54
  TRACK 69 AUDIO
    TITLE "6:cjc030_02725"
    INDEX 01 01:20:16
  TRACK 70 AUDIO
    TITLE "0:"
    INDEX 01 01:25:45
  TRACK 71 AUDIO
    TITLE "3:cjc030_02726"
    INDEX 01 01:26:19
  TRACK 72 AUDIO
    TITLE "0:"
    INDEX 01 01:27:32
  TRACK 73 AUDIO
    TITLE "4:cjc030_02727"
    INDEX 01 01:27:40
  TRACK 74 AUDIO
    TITLE "0:"
    INDEX 01 01:30:17
  TRACK 75 AUDIO
    TITLE "5:cjc030_02728"
    INDEX 01 01:30:24
  TRACK 76 AUDIO
    TITLE "0:"
    INDEX 01 01:31:39
  TRACK 77 AUDIO
    TITLE "3:cjc030_02729"
    INDEX 01 01:32:17
  TRACK 78 AUDIO
    TITLE "0:"
    INDEX 01 01:33:15
  TRACK 79 AUDIO
    TITLE "4:cjc030_02730"
    INDEX 01 01:33:25
  TRACK 80 AUDIO
    TITLE "0:"
    INDEX 01 01:35:59
  TRACK 81 AUDIO
    TITLE "5:cjc030_02731"
    INDEX 01 01:35:67
  TRACK 82 AUDIO
    TITLE "0:"
    INDEX 01 01:36:66
  TRACK 83 AUDIO
    TITLE "6:cjc030_02732"
    INDEX 01 01:37:03
  TRACK 84 AUDIO
    TITLE "0:"
    INDEX 01 01:41:46
